<svg xmlns="http://www.w3.org/2000/svg" viewBox="0 0 128 128">
<path d="M64 10c17 0 30 14 30 31v18c0 6 8 10 13 13 6 3 10 4 10 7 0 4-7 6-15 7-4 1-6 2-6 6 0 9-12 12-18 12-4 0-8 8-14 8s-10-8-14-8c-6 0-18-3-18-12 0-4-2-5-6-6-8-1-15-3-15-7 0-3 4-4 10-7 5-3 13-7 13-13V41c0-17 13-31 30-31z" fill="#111"/>
<path d="M64 20c12 0 22 10 22 22v17c0 10 10 15 17 19-5 2-11 3-18 4-7 1-9 4-9 9 0 4-6 6-12 6-4 0-7 8-10 8s-6-8-10-8c-6 0-12-2-12-6 0-5-2-8-9-9-7-1-13-2-18-4 7-4 17-9 17-19V42c0-12 10-22 22-22z" fill="#fff"/>
</svg>